<svg width="235" height="207" viewBox="0 0 235 207" fill="none" xmlns="http://www.w3.org/2000/svg">
<path d="M232.634 96.6056L180.731 6.71061C178.331 2.56062 173.908 0 169.116 0H65.3181C60.5259 0 56.0952 2.56062 53.7032 6.71061L1.80007 96.6056C-0.600023 100.756 -0.600023 105.869 1.80007 110.019L53.7032 199.914C56.0952 204.064 60.5259 206.624 65.3181 206.624H169.116C173.908 206.624 178.339 204.072 180.731 199.914L232.634 110.019C235.027 105.869 235.027 100.756 232.634 96.6056Z" fill="url(#paint0_linear_161_1293)"/>
<path d="M65.5593 192.786L13.9051 103.308L65.5593 13.8386H168.876L220.53 103.308L168.876 192.786H65.5593Z" fill="white"/>
<defs>
<linearGradient id="paint0_linear_161_1293" x1="0.00200677" y1="103.308" x2="234.433" y2="103.308" gradientUnits="userSpaceOnUse">
<stop stop-color="#D01A34"/>
<stop offset="1" stop-color="#FFDD0E"/>
</linearGradient>
</defs>
</svg>
